<svg xmlns="http://www.w3.org/2000/svg"
     width="48" height="48" viewBox="0 0 24 24"
     fill="currentColor" aria-hidden="true"
     preserveAspectRatio="xMidYMid meet">
  <!-- uniform scale to fit 585×427 into 24×24; center vertically -->
  <!-- s = 24/585 = 0.041025641 ; padY = (24 - 24*(427/585))/2 = 3.230769231 -->
  <g transform="translate(0,3.230769231) scale(0.041025641)">
    <!-- Boldening stroke added; rounded joins/caps smooth corners -->
    <g transform="matrix(.1 0 0 -.1 0 427)"
       fill="currentColor"
       stroke="currentColor"
       stroke-width="1.7"
       vector-effect="non-scaling-stroke"
       stroke-linejoin="round"
       stroke-linecap="round"
       stroke-miterlimit="2">
      <!-- your original paths unchanged below -->
      <path d="M2281 3618c-24-12-51-34-59-48-13-22-27-29-76-38-99-19-306-78-407-117-116-45-274-128-375-196-103-70-115-79-225-189-245-246-341-498-356-941l-6-176-58-32c-33-18-64-42-70-54-19-34-6-277 16-315 19-32 59-55 115-67 19-4 49-20 65-36 17-15 51-37 76-48 95-42 383-73 646-70 138 2 142 1 172-23 95-81 379-251 596-358 248-122 459-199 675-246 120-26 442-27 550-1 175 41 296 91 624 256 182 92 364 180 404 196 66 26 77 27 105 16 195-77 408-125 516-118 120 9 177 61 157 142-13 53-85 100-246 162-35 13-82 33-105 43-22 10-116 53-210 95-93 42-288 135-432 206-255 125-263 129-263 158 0 16-14 110-31 208-16 98-46 286-64 418-63 442-79 505-150 602-74 102-169 167-382 262-270 120-718 241-895 241-54 0-58 2-73 31-32 60-150 79-234 37m181-35c10-9 18-20 18-24 0-21-189-39-218-21-16 11 24 49 64 62s114 3 136-17m208-78c243-35 463-94 709-191 285-113 422-207 487-335 42-84 51-125 115-550 34-222 69-456 79-519l17-115-21-17c-225-187-1222-391-2136-439-421-22-810-3-962 47-124 40-133 79-133 554 0 384 6 441 70 635 71 216 194 387 390 540 164 127 375 239 576 303 196 64 264 76 439 77 90 1 165 6 180 13 34 15 67 14 190-3M780 1825c0-25-5-45-10-45-17 0-70 30-70 39s59 51 73 51c4 0 7-20 7-45m-46-65c44-20 46-23 46-63 0-23 5-80 10-126 6-46 9-86 6-89s-26 3-50 12c-35 14-47 24-55 49-13 44-23 237-12 237 5 0 29-9 55-20m3611-125c244-118 517-246 643-301l113-49-58-7c-295-34-392-70-895-335-218-115-275-141-424-193-221-78-467-95-706-47-274 55-590 183-898 362-63 37-130 76-148 86-42 25-190 128-196 138-3 4 86 13 197 20 932 58 1831 240 2081 422l39 28 46-23c25-13 118-58 206-101m926-443c59-29 78-61 56-96-31-47-146-59-294-31-96 18-304 85-298 96 5 7 139 40 215 53 14 2 81 3 150 3 107-2 131-5 171-25"/>
      <path d="M2140 3413c-153-115-296-285-379-451-51-102-99-260-124-403-20-124-22-164-22-549 0-228 4-454 9-502 9-97 14-103 76-90l35 8-3 459c-3 421-2 472 17 600 57 393 174 613 464 873 39 35 47 48 47 77 0 30-3 35-22 34-13 0-57-25-98-56m100 14c0-8-36-45-81-82-213-180-354-418-412-695-40-191-42-234-41-727l2-483h-55l-6 188c-10 281-8 697 3 813 34 337 141 589 341 803 67 71 219 196 240 196 5 0 9-6 9-13"/>
      <path d="M1420 2970c-24-24-26-57-4-88 11-16 25-22 54-22s43 6 54 22c21 30 20 50-5 82s-70 35-99 6m80-25c20-24 3-55-30-55-20 0-31 6-35 20-8 25 10 50 35 50 10 0 23-7 30-15"/>
      <path d="m3321 2853-33-4 7-67c4-37 9-70 12-74 2-5 24-8 48-8 56 0 71-21 80-110 11-106 34-178 66-205l29-24-21-36c-23-38-23-69-3-255 7-61-4-79-61-97-29-10-30-11-27-69 2-32 8-65 14-72 15-17 77-8 145 23 93 42 114 106 93 286-11 97-11 111 4 134 9 13 29 28 44 31 46 11 51 21 45 77-7 66-17 77-63 77-65 0-79 20-96 145-18 130-43 188-97 222-38 24-119 36-186 26m167-54c43-26 63-74 78-184 8-59 19-117 24-130 12-32 50-56 100-62 38-5 40-7 40-42 0-33-4-38-36-50-59-21-70-60-55-201 13-122 9-159-21-202-23-33-99-70-135-66-25 3-28 7-31 46-3 36 0 42 16 42 11 0 32 10 47 22l28 22-8 95c-15 178-13 203 18 244 15 19 27 38 27 40 0 3-16 14-35 26-43 25-61 65-70 151-13 142-34 178-104 187-40 5-41 7-41 44 0 36 1 38 38 41 46 4 90-5 120-23"/>
      <path d="M2650 2758c-54-12-104-48-126-91-19-36-23-113-11-242 8-81 7-93-10-114-10-12-34-26-53-30l-35-7 1-63c1-72 9-81 71-81 57 0 67-18 87-159 17-120 35-163 82-200 37-29 120-45 174-34l45 9-1 56c-2 81-6 88-57 88-26 0-49 6-56 14-6 8-16 54-22 102-13 121-24 157-58 193l-30 32 21 47c20 44 20 53 9 166-13 139-6 160 55 172l36 7-6 65c-4 36-9 69-12 74-7 10-46 9-104-4m84-49c10-50 8-56-20-63-14-4-37-18-50-31l-25-25 7-148 7-147-28-34-28-33 32-25c46-36 61-72 76-189 17-131 31-154 96-154 36 0 37-1 41-41 2-22 2-42-1-45-13-12-116-2-150 15-47 24-67 68-81 180-6 46-17 99-23 119-14 42-67 82-108 82-21 0-29 5-29 18 0 9-3 27-6 40-5 16-2 22 10 22 26 0 72 27 82 47 5 10 9 93 9 185v167l29 30c28 29 62 45 116 54 14 2 28 5 31 6 4 0 9-13 13-30"/>
      <path d="M3030 2643c-106-37-150-91-150-187 0-116 36-155 212-235 53-23 69-35 74-57 9-35-15-54-67-54-61 0-89 18-101 66-11 41-13 42-62 48-105 12-106 12-106-39 0-131 93-215 248-223 125-7 206 30 243 112 24 54 24 106-2 161s-44 70-151 125c-46 24-91 50-100 58-24 20-23 59 1 72 49 26 121-1 121-45 0-37 26-55 81-56 27-1 54-2 60-3 25-2 31 29 19 88-15 74-69 137-137 160-44 15-151 20-183 9m197-54c52-27 93-88 93-141 0-26-3-28-40-28-38 0-41 3-61 46-25 51-48 64-115 64-76 0-117-62-78-118 8-12 59-45 112-71 53-27 109-62 124-78 65-69 54-185-23-235-94-61-250-45-327 33-48 49-69 139-33 139 46 0 81-13 81-30 0-10 12-32 26-49 45-54 150-65 195-20 20 20 25 73 9 99-5 8-60 39-122 70-97 48-116 61-135 95-37 65-26 163 23 207 30 26 114 48 171 45 29-2 72-14 100-28"/>
    </g>
  </g>
</svg>
